<?xml version="1.0" standalone="no"?>
<!DOCTYPE svg PUBLIC "-//W3C//DTD SVG 20010904//EN"
 "http://www.w3.org/TR/2001/REC-SVG-20010904/DTD/svg10.dtd">
<svg version="1.0" xmlns="http://www.w3.org/2000/svg"
 width="500.000000pt" height="500.000000pt" viewBox="0 0 500.000000 500.000000"
 preserveAspectRatio="xMidYMid meet">

<g transform="translate(0.000000,500.000000) scale(0.100000,-0.100000)"
fill="#000000" stroke="none">
<path d="M2360 4569 c-886 -57 -1647 -689 -1865 -1547 -50 -199 -59 -282 -59
-527 0 -208 3 -243 27 -368 115 -588 453 -1079 958 -1392 512 -318 1169 -391
1744 -195 746 254 1279 898 1390 1682 17 121 20 407 4 528 -86 696 -508 1294
-1135 1608 -324 162 -693 235 -1064 211z m258 -19 l56 0 -32 -33 -32 -33 0
-753 0 -753 -25 -30 c-14 -16 -25 -36 -25 -44 0 -20 45 -64 65 -64 21 0 65 44
65 65 0 9 -11 27 -25 41 l-25 25 0 758 0 757 30 29 c27 26 33 28 92 22 105
-10 310 -58 411 -96 l27 -11 0 -207 0 -208 -175 -175 -175 -175 0 -546 c0
-477 -2 -548 -15 -553 -18 -7 -20 -57 -3 -74 15 -15 51 -15 66 0 18 18 14 53
-8 73 -20 18 -20 31 -20 553 l0 536 175 176 175 176 0 207 c0 114 4 207 9 207
4 0 31 -10 60 -21 l51 -22 0 -356 0 -356 135 -135 135 -135 0 -375 0 -375
-170 -170 -170 -170 0 -465 0 -465 -95 -95 -95 -95 0 -302 0 -301 -26 -31
c-14 -17 -42 -35 -62 -41 -66 -18 -197 -41 -286 -48 l-86 -8 0 121 0 120 80
80 80 80 0 124 0 125 -110 111 -110 112 0 235 c0 222 1 236 20 253 22 20 26
55 8 73 -15 15 -51 15 -66 0 -17 -17 -15 -67 3 -74 13 -5 15 -43 15 -253 l0
-246 110 -110 110 -110 0 -115 0 -115 -80 -80 -80 -80 0 -127 0 -128 -92 0
c-51 0 -123 3 -160 7 l-68 6 0 464 c0 450 1 466 20 490 11 14 20 30 20 34 0
14 -39 49 -54 49 -42 0 -62 -71 -26 -90 20 -10 20 -21 20 -475 l0 -465 -22 0
c-13 0 -74 9 -135 21 l-113 21 0 687 0 686 -180 180 -180 180 0 430 0 430
-180 180 -180 180 0 340 0 340 84 57 c124 85 405 228 447 228 5 0 9 -69 9
-153 l0 -152 -117 -117 c-111 -111 -120 -118 -156 -116 -40 1 -61 -12 -71 -48
-9 -29 28 -74 60 -74 35 0 67 36 62 70 -4 26 10 43 119 152 l123 123 0 163 0
162 28 11 c95 38 465 110 481 94 3 -3 -72 -83 -167 -178 l-172 -172 0 -215 0
-215 185 -185 185 -185 0 -425 0 -424 215 -216 215 -216 0 -394 c0 -388 0
-394 -21 -416 -28 -30 -19 -71 18 -80 20 -5 31 -2 45 16 23 28 23 35 -2 60
-19 19 -20 33 -20 423 l0 402 -215 215 -215 215 0 425 0 425 -185 185 -185
185 0 205 0 205 183 182 c175 175 184 182 227 186 25 3 65 3 89 1 24 -2 69 -4
99 -4z m852 -239 c25 -13 84 -48 133 -78 l87 -55 0 -178 c0 -146 -3 -180 -15
-190 -16 -13 -20 -48 -7 -66 11 -17 35 -22 60 -13 26 10 30 53 7 79 -13 14
-15 45 -13 179 l3 162 97 -80 c53 -45 135 -123 182 -173 l86 -93 0 -105 0
-104 -160 -161 -160 -161 0 -385 0 -384 -150 -150 -150 -150 0 -315 0 -315
-90 -90 -90 -90 0 450 0 450 170 170 170 170 0 385 0 385 -130 130 -130 130 0
347 0 347 28 -12 c15 -7 47 -23 72 -36z m-2042 -1037 l183 -179 -1 -430 0
-430 175 -175 175 -175 0 -681 0 -682 -80 26 -80 26 0 471 0 470 -165 165
-165 165 0 380 0 380 -180 180 -180 180 0 481 c0 470 0 481 -20 499 -11 10
-19 22 -18 26 2 4 39 39 83 78 l80 70 5 -333 5 -333 183 -179z m-356 659 c17
-15 18 -44 18 -497 l0 -481 180 -180 180 -180 0 -380 0 -380 165 -165 165
-165 0 -462 0 -462 -37 15 c-21 8 -82 36 -135 61 l-98 46 0 336 0 336 -150
150 c-118 117 -150 155 -150 176 0 15 -7 32 -15 39 -22 19 -64 4 -71 -25 -8
-32 11 -55 45 -55 20 0 58 -32 168 -142 l143 -143 0 -323 c0 -290 -2 -324 -16
-318 -24 9 -214 141 -259 180 l-40 35 63 64 c48 48 69 63 85 60 30 -6 61 28
52 56 -17 55 -95 41 -95 -16 0 -20 -16 -44 -57 -85 -32 -32 -62 -58 -68 -58
-14 0 -167 156 -235 240 -30 36 -89 119 -132 184 l-78 120 25 26 25 26 0 330
0 330 -75 74 -75 74 0 456 0 455 58 115 c31 63 80 151 107 195 l50 80 3 -549
2 -548 -25 -20 c-30 -24 -32 -61 -5 -88 27 -27 56 -25 85 5 33 32 31 51 -5 85
l-30 28 0 560 0 559 48 60 c59 74 155 183 161 183 2 0 13 -7 23 -17z m488 -78
c27 -32 -23 -82 -55 -55 -15 13 -20 51 -8 63 12 12 50 7 63 -8z m2168 -78 c4
-20 -25 -34 -40 -19 -15 15 -1 44 19 40 10 -2 19 -11 21 -21z m482 -141 c33
-49 85 -139 116 -199 l56 -110 -128 -128 -129 -129 -3 -273 -3 -273 -200 -200
-199 -199 0 -530 0 -531 59 -58 60 -59 -47 -39 c-61 -50 -202 -147 -274 -188
l-58 -32 0 148 c0 137 2 149 21 170 26 27 20 69 -11 79 -54 17 -90 -37 -51
-79 19 -21 21 -33 21 -174 l0 -152 -60 -30 c-72 -37 -186 -82 -259 -104 -52
-15 -53 -15 -37 2 14 16 16 54 16 323 l0 304 195 195 195 195 0 315 0 315 155
155 155 155 0 380 0 380 155 155 155 155 0 100 0 100 20 -25 c11 -14 47 -65
80 -114z m226 -452 c78 -219 114 -433 114 -684 0 -188 -18 -334 -65 -517 -66
-255 -171 -474 -334 -698 l-66 -90 -3 364 -2 363 25 20 c46 36 23 108 -36 108
-59 0 -81 -71 -34 -108 l25 -20 0 -378 1 -378 -100 -100 -101 -101 -60 60 -60
59 0 516 0 515 205 205 205 205 0 270 0 270 117 117 c65 65 121 114 125 110 5
-5 25 -53 44 -108z m-3856 -386 l0 -402 -65 64 c-63 62 -65 66 -65 115 1 68
25 263 44 355 18 84 74 270 81 270 3 0 5 -181 5 -402z m2070 132 c22 -22 18
-45 -11 -61 -14 -7 -23 -5 -39 11 -20 20 -19 29 3 58 13 17 24 15 47 -8z
m-1780 -415 c0 -35 -36 -52 -61 -29 -25 22 -24 39 3 58 28 20 58 4 58 -29z
m2018 12 c4 -20 -25 -34 -40 -19 -15 15 -1 44 19 40 10 -2 19 -11 21 -21z
m-2158 -638 c0 -300 -1 -317 -19 -333 -19 -17 -21 -16 -54 51 -114 227 -186
503 -203 773 l-6 105 141 -140 141 -140 0 -316z m3370 126 c26 -32 -13 -81
-47 -59 -35 22 -23 74 17 74 10 0 23 -7 30 -15z m-1522 -158 c4 -20 -25 -34
-40 -19 -15 15 -1 44 19 40 10 -2 19 -11 21 -21z m-1390 -150 c4 -21 -25 -34
-40 -19 -8 8 -8 16 2 27 16 19 34 15 38 -8z m1102 -257 c0 -27 -19 -35 -38
-17 -12 13 -13 19 -3 31 16 19 41 10 41 -14z m540 -180 c0 -27 -19 -35 -38
-17 -12 13 -13 19 -3 31 16 19 41 10 41 -14z m-1487 -144 c3 -8 -1 -20 -9 -27
-12 -10 -18 -9 -31 3 -8 9 -12 21 -9 27 10 16 43 14 49 -3z m2127 -71 c15 -18
5 -35 -20 -35 -10 0 -22 5 -25 10 -7 11 12 40 25 40 4 0 13 -7 20 -15z"/>
<path d="M2272 4268 c-18 -18 -14 -56 8 -75 19 -16 20 -30 20 -205 0 -177 -1
-188 -20 -198 -27 -14 -27 -65 -1 -80 31 -16 49 -12 67 16 16 24 16 26 -5 54
-20 27 -21 40 -21 220 0 115 4 190 10 190 5 0 14 9 20 21 24 43 -43 92 -78 57z
m56 -34 c2 -12 -4 -24 -12 -27 -19 -7 -40 18 -32 39 8 22 40 13 44 -12z m0
-478 c6 -29 -15 -43 -35 -24 -14 14 -14 20 -3 33 16 19 34 15 38 -9z"/>
<path d="M1682 3554 c-25 -17 -29 -60 -8 -89 10 -14 25 -19 52 -18 37 2 45 -5
157 -115 l117 -117 0 -481 0 -481 -25 -23 c-32 -30 -32 -63 1 -89 34 -27 50
-26 79 4 32 31 31 50 0 81 l-26 26 1 480 0 481 -125 126 c-114 116 -125 130
-125 163 0 38 -27 68 -60 68 -9 0 -26 -7 -38 -16z m62 -17 c36 -26 -4 -84 -41
-61 -25 16 -28 45 -7 61 10 7 21 13 24 13 3 0 14 -6 24 -13z m287 -1317 c24
-13 25 -56 2 -68 -23 -12 -41 -5 -54 20 -8 15 -7 24 7 39 20 22 20 22 45 9z"/>
</g>
</svg>
